# xmcd
#
# Track frame offsets: 
#        150
#        20712
#        35610
#        70242
#        88685
#        104867
#        126207
#        142322
#        167950
#        183600
#        202895
#        215172
#
# Disc length: 3155 seconds
#
# Revision: 3
# Processed by: cddbd v1.5.2PL0 Copyright (c) Steve Scherf et al.
# Submitted via: ExactAudioCopyFreeDBPlugin 1.0
#
DISCID=c50c510c
DTITLE=Das Dritte Ohr - Zahltag
DYEAR=1980
DGENRE=Blues
TTITLE0=Zahltag
TTITLE1=Wenn die Sonne sinkt
TTITLE2=Rita Rita
TTITLE3=Mordwest-Stadt
TTITLE4=Maibock
TTITLE5=Kalte Wut
TTITLE6=Bleib weg
TTITLE7=Schwarzer Wurm
TTITLE8=Disco Fuzzies
TTITLE9=Starvin Traveller
TTITLE10=Sippin' Time
TTITLE11=Yo-Yo Woman
EXTD=
EXTT0=
EXTT1=
EXTT2=
EXTT3=
EXTT4=
EXTT5=
EXTT6=
EXTT7=
EXTT8=
EXTT9=
EXTT10=
EXTT11=
PLAYORDER=
